HIERARCHY
ROOT mixamorig:Hips
{
	OFFSET -0.000008 104.274872 1.554316
	CHANNELS 6 Xposition Yposition Zposition Xrotation Yrotation Zrotation
	JOINT mixamorig:Spine
	{
		OFFSET -0.000005 10.181595 0.131519
		CHANNELS 6 Xposition Yposition Zposition Xrotation Yrotation Zrotation
		JOINT mixamorig:Spine1
		{
			OFFSET -0.000000 9.893959 -1.470707
			CHANNELS 6 Xposition Yposition Zposition Xrotation Yrotation Zrotation
			JOINT mixamorig:Spine2
			{
				OFFSET -0.000000 9.220757 -1.370641
				CHANNELS 6 Xposition Yposition Zposition Xrotation Yrotation Zrotation
				JOINT mixamorig:Neck
				{
					OFFSET 0.000001 16.740417 -2.049036
					CHANNELS 6 Xposition Yposition Zposition Xrotation Yrotation Zrotation
					JOINT mixamorig:Head
					{
						OFFSET 0.000000 9.617874 1.685006
						CHANNELS 6 Xposition Yposition Zposition Xrotation Yrotation Zrotation
						JOINT mixamorig:HeadTop_End
						{
							OFFSET 0.000002 22.037354 7.501101
							CHANNELS 6 Xposition Yposition Zposition Xrotation Yrotation Zrotation
							End Site
							{
								OFFSET 0.000168 2310.654297 -282.823242
							}
						}
					}
				}
				JOINT mixamorig:RightShoulder
				{
					OFFSET -4.569970 11.014908 -2.160885
					CHANNELS 6 Xposition Yposition Zposition Xrotation Yrotation Zrotation
					JOINT mixamorig:RightArm
					{
						OFFSET -10.592851 -0.524811 -2.232101
						CHANNELS 6 Xposition Yposition Zposition Xrotation Yrotation Zrotation
						JOINT mixamorig:RightForeArm
						{
							OFFSET -27.841511 0.000031 -0.000004
							CHANNELS 6 Xposition Yposition Zposition Xrotation Yrotation Zrotation
							JOINT mixamorig:RightHand
							{
								OFFSET -28.328831 -0.000015 0.000015
								CHANNELS 6 Xposition Yposition Zposition Xrotation Yrotation Zrotation
								JOINT mixamorig:RightHandThumb1
								{
									OFFSET -2.464806 -1.573990 2.681852
									CHANNELS 6 Xposition Yposition Zposition Xrotation Yrotation Zrotation
									JOINT mixamorig:RightHandThumb2
									{
										OFFSET -3.215179 -1.872803 1.924282
										CHANNELS 6 Xposition Yposition Zposition Xrotation Yrotation Zrotation
										JOINT mixamorig:RightHandThumb3
										{
											OFFSET -2.654831 -1.527969 1.512609
											CHANNELS 6 Xposition Yposition Zposition Xrotation Yrotation Zrotation
											JOINT mixamorig:RightHandThumb4
											{
												OFFSET -2.018814 -1.152008 1.108052
												CHANNELS 6 Xposition Yposition Zposition Xrotation Yrotation Zrotation
												End Site
												{
													OFFSET -188.809540 -114.533607 132.431396
												}
											}
										}
									}
								}
								JOINT mixamorig:RightHandIndex1
								{
									OFFSET -9.108284 -0.517868 2.259835
									CHANNELS 6 Xposition Yposition Zposition Xrotation Yrotation Zrotation
									JOINT mixamorig:RightHandIndex2
									{
										OFFSET -3.699989 0.000000 0.001215
										CHANNELS 6 Xposition Yposition Zposition Xrotation Yrotation Zrotation
										JOINT mixamorig:RightHandIndex3
										{
											OFFSET -2.850006 0.000031 -0.000522
											CHANNELS 6 Xposition Yposition Zposition Xrotation Yrotation Zrotation
											JOINT mixamorig:RightHandIndex4
											{
												OFFSET -2.772186 -0.000015 -0.000020
												CHANNELS 6 Xposition Yposition Zposition Xrotation Yrotation Zrotation
												End Site
												{
													OFFSET -277.218445 0.000000 -0.050231
												}
											}
										}
									}
								}
								JOINT mixamorig:RightHandMiddle1
								{
									OFFSET -9.532516 -0.000031 -0.000023
									CHANNELS 6 Xposition Yposition Zposition Xrotation Yrotation Zrotation
									JOINT mixamorig:RightHandMiddle2
									{
										OFFSET -3.700005 -0.000015 0.003713
										CHANNELS 6 Xposition Yposition Zposition Xrotation Yrotation Zrotation
										JOINT mixamorig:RightHandMiddle3
										{
											OFFSET -2.949974 0.000015 -0.002054
											CHANNELS 6 Xposition Yposition Zposition Xrotation Yrotation Zrotation
											JOINT mixamorig:RightHandMiddle4
											{
												OFFSET -2.946640 0.000000 -0.000156
												CHANNELS 6 Xposition Yposition Zposition Xrotation Yrotation Zrotation
												End Site
												{
													OFFSET -294.664337 0.000000 -0.113670
												}
											}
										}
									}
								}
								JOINT mixamorig:RightHandRing1
								{
									OFFSET -9.103600 -0.043076 -1.865134
									CHANNELS 6 Xposition Yposition Zposition Xrotation Yrotation Zrotation
									JOINT mixamorig:RightHandRing2
									{
										OFFSET -3.379288 0.000000 -0.001055
										CHANNELS 6 Xposition Yposition Zposition Xrotation Yrotation Zrotation
										JOINT mixamorig:RightHandRing3
										{
											OFFSET -2.889687 -0.000015 0.000379
											CHANNELS 6 Xposition Yposition Zposition Xrotation Yrotation Zrotation
											JOINT mixamorig:RightHandRing4
											{
												OFFSET -2.638809 -0.000015 0.000941
												CHANNELS 6 Xposition Yposition Zposition Xrotation Yrotation Zrotation
												End Site
												{
													OFFSET -263.880371 0.000000 0.516020
												}
											}
										}
									}
								}
								JOINT mixamorig:RightHandPinky1
								{
									OFFSET -8.076683 -0.486710 -3.806280
									CHANNELS 6 Xposition Yposition Zposition Xrotation Yrotation Zrotation
									JOINT mixamorig:RightHandPinky2
									{
										OFFSET -3.600014 -0.000015 -0.003747
										CHANNELS 6 Xposition Yposition Zposition Xrotation Yrotation Zrotation
										JOINT mixamorig:RightHandPinky3
										{
											OFFSET -2.099983 0.000000 -0.005739
											CHANNELS 6 Xposition Yposition Zposition Xrotation Yrotation Zrotation
											JOINT mixamorig:RightHandPinky4
											{
												OFFSET -2.115768 -0.000031 -0.003680
												CHANNELS 6 Xposition Yposition Zposition Xrotation Yrotation Zrotation
												End Site
												{
													OFFSET -211.577087 0.000000 -0.350686
												}
											}
										}
									}
								}
							}
						}
					}
				}
				JOINT mixamorig:LeftShoulder
				{
					OFFSET 4.570447 11.014725 -2.160855
					CHANNELS 6 Xposition Yposition Zposition Xrotation Yrotation Zrotation
					JOINT mixamorig:LeftArm
					{
						OFFSET 10.592371 -0.524597 -2.232119
						CHANNELS 6 Xposition Yposition Zposition Xrotation Yrotation Zrotation
						JOINT mixamorig:LeftForeArm
						{
							OFFSET 27.841532 -0.000031 0.000026
							CHANNELS 6 Xposition Yposition Zposition Xrotation Yrotation Zrotation
							JOINT mixamorig:LeftHand
							{
								OFFSET 28.328846 -0.000061 0.000022
								CHANNELS 6 Xposition Yposition Zposition Xrotation Yrotation Zrotation
								JOINT mixamorig:LeftHandThumb1
								{
									OFFSET 2.466141 -1.576172 2.681732
									CHANNELS 6 Xposition Yposition Zposition Xrotation Yrotation Zrotation
									JOINT mixamorig:LeftHandThumb2
									{
										OFFSET 3.217812 -1.872070 1.916482
										CHANNELS 6 Xposition Yposition Zposition Xrotation Yrotation Zrotation
										JOINT mixamorig:LeftHandThumb3
										{
											OFFSET 2.656029 -1.528778 1.514513
											CHANNELS 6 Xposition Yposition Zposition Xrotation Yrotation Zrotation
											JOINT mixamorig:LeftHandThumb4
											{
												OFFSET 2.020889 -1.154053 1.115139
												CHANNELS 6 Xposition Yposition Zposition Xrotation Yrotation Zrotation
												End Site
												{
													OFFSET 190.885437 -115.081749 130.048782
												}
											}
										}
									}
								}
								JOINT mixamorig:LeftHandIndex1
								{
									OFFSET 9.109314 -0.518021 2.259871
									CHANNELS 6 Xposition Yposition Zposition Xrotation Yrotation Zrotation
									JOINT mixamorig:LeftHandIndex2
									{
										OFFSET 3.699989 0.000000 -0.000322
										CHANNELS 6 Xposition Yposition Zposition Xrotation Yrotation Zrotation
										JOINT mixamorig:LeftHandIndex3
										{
											OFFSET 2.850006 0.000000 0.000352
											CHANNELS 6 Xposition Yposition Zposition Xrotation Yrotation Zrotation
											JOINT mixamorig:LeftHandIndex4
											{
												OFFSET 2.774864 -0.000031 -0.000027
												CHANNELS 6 Xposition Yposition Zposition Xrotation Yrotation Zrotation
												End Site
												{
													OFFSET 277.486267 0.000000 -0.009857
												}
											}
										}
									}
								}
								JOINT mixamorig:LeftHandMiddle1
								{
									OFFSET 9.533394 0.000061 0.000044
									CHANNELS 6 Xposition Yposition Zposition Xrotation Yrotation Zrotation
									JOINT mixamorig:LeftHandMiddle2
									{
										OFFSET 3.699989 -0.000015 -0.000231
										CHANNELS 6 Xposition Yposition Zposition Xrotation Yrotation Zrotation
										JOINT mixamorig:LeftHandMiddle3
										{
											OFFSET 2.949997 -0.000015 -0.000059
											CHANNELS 6 Xposition Yposition Zposition Xrotation Yrotation Zrotation
											JOINT mixamorig:LeftHandMiddle4
											{
												OFFSET 2.952896 0.000031 0.000063
												CHANNELS 6 Xposition Yposition Zposition Xrotation Yrotation Zrotation
												End Site
												{
													OFFSET 295.289337 0.000000 0.022810
												}
											}
										}
									}
								}
								JOINT mixamorig:LeftHandRing1
								{
									OFFSET 9.104523 -0.042999 -1.865074
									CHANNELS 6 Xposition Yposition Zposition Xrotation Yrotation Zrotation
									JOINT mixamorig:LeftHandRing2
									{
										OFFSET 3.150009 -0.000031 0.000043
										CHANNELS 6 Xposition Yposition Zposition Xrotation Yrotation Zrotation
										JOINT mixamorig:LeftHandRing3
										{
											OFFSET 2.949982 -0.000015 0.000040
											CHANNELS 6 Xposition Yposition Zposition Xrotation Yrotation Zrotation
											JOINT mixamorig:LeftHandRing4
											{
												OFFSET 2.644348 0.000000 0.000057
												CHANNELS 6 Xposition Yposition Zposition Xrotation Yrotation Zrotation
												End Site
												{
													OFFSET 264.434631 0.000000 0.012105
												}
											}
										}
									}
								}
								JOINT mixamorig:LeftHandPinky1
								{
									OFFSET 8.077789 -0.486847 -3.806259
									CHANNELS 6 Xposition Yposition Zposition Xrotation Yrotation Zrotation
									JOINT mixamorig:LeftHandPinky2
									{
										OFFSET 3.599953 0.000031 0.014727
										CHANNELS 6 Xposition Yposition Zposition Xrotation Yrotation Zrotation
										JOINT mixamorig:LeftHandPinky3
										{
											OFFSET 2.100021 0.000015 0.007705
											CHANNELS 6 Xposition Yposition Zposition Xrotation Yrotation Zrotation
											JOINT mixamorig:LeftHandPinky4
											{
												OFFSET 2.125504 0.000031 0.007517
												CHANNELS 6 Xposition Yposition Zposition Xrotation Yrotation Zrotation
												End Site
												{
													OFFSET 212.550781 0.000000 0.625752
												}
											}
										}
									}
								}
							}
						}
					}
				}
			}
		}
	}
	JOINT mixamorig:RightUpLeg
	{
		OFFSET -8.207787 -6.751648 -1.599560
		CHANNELS 6 Xposition Yposition Zposition Xrotation Yrotation Zrotation
		JOINT mixamorig:RightLeg
		{
			OFFSET -0.000002 -44.370117 0.345942
			CHANNELS 6 Xposition Yposition Zposition Xrotation Yrotation Zrotation
			JOINT mixamorig:RightFoot
			{
				OFFSET 0.000003 -44.423679 -3.043532
				CHANNELS 6 Xposition Yposition Zposition Xrotation Yrotation Zrotation
				JOINT mixamorig:RightToeBase
				{
					OFFSET -0.000002 -8.728671 10.710558
					CHANNELS 6 Xposition Yposition Zposition Xrotation Yrotation Zrotation
					JOINT mixamorig:RightToe_End
					{
						OFFSET -0.000001 -0.000679 9.278119
						CHANNELS 6 Xposition Yposition Zposition Xrotation Yrotation Zrotation
						End Site
						{
							OFFSET 0.000000 -0.067690 927.812134
						}
					}
				}
			}
		}
	}
	JOINT mixamorig:LeftUpLeg
	{
		OFFSET 8.207793 -6.751686 -1.599556
		CHANNELS 6 Xposition Yposition Zposition Xrotation Yrotation Zrotation
		JOINT mixamorig:LeftLeg
		{
			OFFSET -0.000004 -44.370014 0.346954
			CHANNELS 6 Xposition Yposition Zposition Xrotation Yrotation Zrotation
			JOINT mixamorig:LeftFoot
			{
				OFFSET -0.000001 -44.423672 -3.044401
				CHANNELS 6 Xposition Yposition Zposition Xrotation Yrotation Zrotation
				JOINT mixamorig:LeftToeBase
				{
					OFFSET -0.000002 -8.728669 10.710558
					CHANNELS 6 Xposition Yposition Zposition Xrotation Yrotation Zrotation
					JOINT mixamorig:LeftToe_End
					{
						OFFSET -0.000003 -0.000679 9.278133
						CHANNELS 6 Xposition Yposition Zposition Xrotation Yrotation Zrotation
						End Site
						{
							OFFSET 0.000000 -0.068021 927.813477
						}
					}
				}
			}
		}
	}
}
MOTION
Frames: 3
Frame Time: 0.033333
0.000006 104.270477 1.554256 0.000010 0.000003 -0.000113 -0.000005 10.181587 0.131522 0.000001 -0.000003 0.000084 -0.000000 9.893967 -1.470711 0.000001 0.000000 -0.000000 -0.000000 9.220802 -1.370642 0.000000 -0.000000 -0.000000 0.000001 16.740433 -2.049030 0.000000 -0.000000 -0.000000 0.000000 9.617859 1.685014 0.000000 0.000000 0.000000 0.000002 22.037384 7.501101 0.000000 -0.000000 0.000000 -4.569968 11.014880 -2.160881 0.000008 0.000001 -0.000038 -10.592864 -0.524800 -2.231856 76.783737 37.742280 -30.308801 -27.841511 0.000009 0.000556 -52.045225 107.123970 66.952335 -28.328823 0.000022 0.000032 -0.000323 -0.000044 0.000005 -2.464441 -1.573698 2.682311 -51.759034 -173.780121 -21.744754 -3.215284 -1.872604 1.924662 155.136491 30.859997 -1.067108 -2.654966 -1.527905 1.513081 146.776763 26.710411 -39.861643 -2.018841 -1.152018 1.108057 -0.000004 0.000001 0.000002 -9.108370 -0.517541 2.260115 94.412025 17.405094 -18.826617 -3.700073 0.000316 0.001505 91.017933 14.164431 -14.391531 -2.850088 0.000345 -0.000278 89.091703 11.695032 -11.511405 -2.772170 0.000001 -0.000018 0.000001 0.000000 -0.000001 -9.532584 0.000260 0.000199 83.819890 16.504633 -14.962836 -3.700071 0.000302 0.003916 82.118879 12.357784 -10.691956 -2.950042 0.000325 -0.001855 81.656455 12.017532 -10.387038 -2.946633 0.000000 -0.000157 0.000002 -0.000000 0.000000 -9.103701 -0.042770 -1.864912 81.845071 19.098881 -16.555398 -3.379325 0.000293 -0.000854 82.596918 11.434858 -10.068457 -2.889756 0.000340 0.000595 86.192111 7.993581 -7.523984 -2.638815 -0.000026 0.000938 0.000006 -0.000002 -0.000001 -8.076746 -0.486406 -3.806108 69.670580 17.483392 -12.107941 -3.600051 0.000243 -0.003604 70.134500 9.940633 -6.729306 -2.100033 0.000294 -0.005574 72.536343 7.035841 -5.000014 -2.115774 -0.000056 -0.003680 0.000001 0.000001 -0.000004 4.570446 11.014691 -2.160851 -0.000018 0.000010 -0.000021 10.592422 -0.524462 -2.232366 74.416004 -19.734850 15.046862 27.841824 0.000072 -0.000212 104.852235 -70.455580 85.092723 28.328821 -0.000028 0.000022 0.000027 -0.000090 0.000001 2.466022 -1.576166 2.681914 -37.373388 164.622340 -16.785460 3.217867 -1.871826 1.916381 157.065364 -25.722414 29.650445 2.656110 -1.528670 1.514462 137.045710 -28.550379 49.294394 2.020888 -1.154081 1.115148 -0.000002 0.000002 0.000001 9.109382 -0.517906 2.259740 71.169956 -17.471376 12.539526 3.700040 0.000087 -0.000458 67.198864 -17.674697 11.807145 2.850041 0.000115 0.000231 62.421181 -14.203622 8.632745 2.774869 -0.000045 -0.000027 0.000001 -0.000001 -0.000002 9.533462 0.000166 -0.000098 70.164812 -15.344947 10.803957 3.700059 0.000124 -0.000366 72.797017 -15.463869 11.429880 2.950056 0.000115 -0.000186 70.408465 -18.376933 13.023753 2.952879 -0.000014 0.000063 0.000000 -0.000002 -0.000002 9.104586 -0.042900 -1.865232 70.075453 -14.309525 10.061614 3.150056 0.000157 -0.000088 73.766221 -13.591913 10.221156 2.950021 0.000108 -0.000063 73.624918 -15.453834 11.598459 2.644322 0.000013 0.000057 0.000001 -0.000001 -0.000002 8.077839 -0.486778 -3.806394 59.440029 -16.503038 9.816064 3.599988 0.000106 0.014568 59.197844 -13.801283 8.168245 2.100029 0.000122 0.007544 61.594222 -12.952451 8.041321 2.125496 -0.000016 0.007517 0.000001 0.000005 0.000006 -8.207786 -6.751667 -1.599560 -0.077001 -0.000003 0.000080 -0.000002 -44.370110 0.345938 0.153719 -0.000000 -0.000000 0.000000 -44.423679 -3.043532 -0.076700 0.000000 -0.000002 -0.000006 -8.728667 10.710559 -0.000009 -0.000000 -0.000000 -0.000001 -0.000679 9.278123 0.000000 -0.000000 -0.000000 8.207792 -6.751710 -1.599556 -0.074518 -0.000003 0.000081 -0.000002 -44.370014 0.346960 0.148822 0.000002 0.000000 -0.000001 -44.423664 -3.044403 -0.074314 0.000000 -0.000002 -0.000004 -8.728671 10.710558 0.000007 -0.000000 -0.000000 0.000000 -0.000680 9.278137 -0.000000 0.000000 -0.000001 
0.000006 104.270477 1.554256 0.000010 0.000003 -0.000113 -0.000005 10.181587 0.131522 0.000001 -0.000003 0.000084 -0.000000 9.893967 -1.470711 0.000001 0.000000 -0.000000 -0.000000 9.220802 -1.370642 0.000000 -0.000000 -0.000000 0.000001 16.740433 -2.049030 0.000000 -0.000000 -0.000000 0.000000 9.617859 1.685014 0.000000 0.000000 0.000000 0.000002 22.037384 7.501101 0.000000 -0.000000 0.000000 -4.569968 11.014880 -2.160881 0.000008 0.000001 -0.000038 -10.592867 -0.524780 -2.231862 77.441354 35.261466 -28.589772 -27.841505 -0.000003 0.000555 -47.608884 105.994960 60.686449 -28.328815 0.000022 0.000031 -0.000317 -0.000041 0.000005 -2.464491 -1.573646 2.682275 -55.793961 -183.444729 -41.929657 -3.215281 -1.872566 1.924649 151.071463 31.027955 2.874864 -2.654955 -1.527862 1.513062 143.831107 27.943026 -31.387793 -2.018831 -1.152012 1.108060 -0.000001 -0.000002 0.000004 -9.108378 -0.517549 2.260092 95.435631 13.797799 -15.207744 -3.700048 0.000336 0.001495 92.498561 10.594816 -11.040598 -2.850069 0.000369 -0.000289 91.051531 9.223586 -9.392751 -2.772164 -0.000015 -0.000018 -0.000002 0.000001 -0.000003 -9.532570 0.000268 0.000180 82.582014 12.794352 -11.368665 -3.700045 0.000335 0.003909 82.342220 9.263742 -8.025430 -2.950053 0.000329 -0.001857 83.752012 10.151609 -9.099243 -2.946614 0.000029 -0.000153 0.000001 0.000001 0.000002 -9.103695 -0.042775 -1.864924 81.106925 16.629007 -14.217752 -3.379327 0.000299 -0.000860 82.977837 9.784677 -8.673366 -2.889745 0.000351 0.000592 88.010300 7.296589 -7.092351 -2.638809 -0.000016 0.000943 -0.000002 0.000003 0.000003 -8.076746 -0.486413 -3.806102 71.346858 17.420061 -12.441044 -3.600047 0.000246 -0.003604 70.625508 9.812808 -6.700358 -2.100028 0.000291 -0.005563 73.229764 6.272622 -4.497625 -2.115775 -0.000047 -0.003687 0.000001 -0.000001 -0.000006 4.570446 11.014691 -2.160851 -0.000018 0.000010 -0.000021 10.592405 -0.524467 -2.232355 75.182235 -14.268843 11.008209 27.841822 0.000056 -0.000183 106.487785 -73.502125 89.989614 28.328825 -0.000029 0.000021 0.000022 -0.000088 -0.000000 2.466229 -1.576089 2.681837 -4.824193 167.954994 -84.916286 3.217878 -1.871856 1.916421 161.145363 -20.778282 47.744166 2.656115 -1.528728 1.514497 137.122782 -28.307559 61.228227 2.020895 -1.154082 1.115144 0.000004 -0.000000 0.000001 9.109367 -0.517914 2.259742 69.520179 -19.851094 13.838868 3.700050 0.000120 -0.000457 69.767370 -13.571326 9.496609 2.850044 0.000134 0.000206 69.207787 -11.261504 7.782147 2.774890 -0.000031 -0.000027 -0.000003 -0.000001 -0.000001 9.533447 0.000171 -0.000091 70.049389 -18.006373 12.666250 3.700038 0.000139 -0.000383 73.959214 -11.207143 8.448582 2.950027 0.000134 -0.000205 73.899204 -12.219255 9.208398 2.952865 -0.000012 0.000058 0.000002 -0.000001 0.000000 9.104594 -0.042881 -1.865214 69.813713 -17.978658 12.599660 3.150051 0.000164 -0.000088 75.163923 -11.835884 9.123547 2.950020 0.000153 -0.000069 76.353961 -10.878850 8.564930 2.644335 0.000031 0.000056 0.000001 -0.000001 -0.000001 8.077831 -0.486765 -3.806384 59.751881 -19.485869 11.632971 3.599993 0.000112 0.014597 60.333732 -15.652149 9.451738 2.100042 0.000129 0.007556 63.674131 -12.550920 8.121604 2.125513 -0.000015 0.007511 0.000001 -0.000001 -0.000001 -8.207786 -6.751667 -1.599560 -0.077001 -0.000003 0.000080 -0.000002 -44.370110 0.345938 0.153719 -0.000000 -0.000000 0.000000 -44.423679 -3.043532 -0.076700 0.000000 -0.000002 -0.000006 -8.728667 10.710559 -0.000009 -0.000000 -0.000000 -0.000001 -0.000679 9.278123 0.000000 -0.000000 -0.000000 8.207792 -6.751710 -1.599556 -0.074518 -0.000003 0.000081 -0.000002 -44.370014 0.346960 0.148822 0.000002 0.000000 -0.000001 -44.423664 -3.044403 -0.074314 0.000000 -0.000002 -0.000004 -8.728671 10.710558 0.000007 -0.000000 -0.000000 0.000000 -0.000680 9.278137 -0.000000 0.000000 -0.000001 
0.000006 104.270477 1.554256 0.000010 0.000003 -0.000113 -0.000005 10.181587 0.131522 0.000001 -0.000003 0.000084 -0.000000 9.893967 -1.470711 0.000001 0.000000 -0.000000 -0.000000 9.220802 -1.370642 0.000000 -0.000000 -0.000000 0.000001 16.740433 -2.049030 0.000000 -0.000000 -0.000000 0.000000 9.617859 1.685014 0.000000 0.000000 0.000000 0.000002 22.037384 7.501101 0.000000 -0.000000 0.000000 -4.569968 11.014880 -2.160881 0.000008 0.000001 -0.000038 -10.592868 -0.524795 -2.231868 77.489049 35.691229 -28.969803 -27.841520 -0.000003 0.000557 -46.604710 104.959981 58.577403 -28.328814 0.000020 0.000024 -0.000320 -0.000041 0.000004 -2.464433 -1.573712 2.682308 -51.559640 -172.587815 -20.859505 -3.215280 -1.872594 1.924657 153.114946 30.623689 -1.423296 -2.654961 -1.527865 1.513067 143.407840 27.880747 -33.343105 -2.018831 -1.152016 1.108072 -0.000006 -0.000002 0.000004 -9.108368 -0.517541 2.260102 97.308093 14.430477 -16.426134 -3.700044 0.000344 0.001481 94.709042 9.666923 -10.467146 -2.850066 0.000385 -0.000278 92.642323 7.861919 -8.230935 -2.772144 -0.000017 -0.000018 -0.000000 0.000003 0.000001 -9.532583 0.000272 0.000182 84.386427 14.549456 -13.329753 -3.700061 0.000317 0.003916 84.869397 9.063944 -8.205832 -2.950042 0.000333 -0.001848 85.512063 9.626964 -8.897582 -2.946620 0.000004 -0.000155 -0.000002 0.000002 0.000001 -9.103694 -0.042763 -1.864904 82.139855 17.593872 -15.321421 -3.379345 0.000314 -0.000852 85.683569 10.227017 -9.503924 -2.889752 0.000349 0.000627 91.019142 7.341314 -7.519304 -2.638813 -0.000026 0.000941 0.000005 -0.000002 0.000002 -8.076737 -0.486403 -3.806095 71.784154 18.117599 -13.050566 -3.600044 0.000247 -0.003589 73.304582 11.204425 -8.072264 -2.100017 0.000299 -0.005534 77.054964 7.436524 -5.744258 -2.115761 -0.000028 -0.003680 0.000001 -0.000002 -0.000003 4.570446 11.014691 -2.160851 -0.000018 0.000010 -0.000021 10.592428 -0.524463 -2.232386 75.237177 -22.706754 17.591579 27.841827 0.000041 -0.000191 107.522026 -75.580865 93.226365 28.328848 -0.000030 0.000022 0.000022 -0.000086 -0.000001 2.466282 -1.575980 2.681798 8.987309 179.543380 -116.626928 3.217853 -1.871875 1.916441 159.060530 -19.595937 55.329672 2.656098 -1.528682 1.514493 136.179779 -28.682795 61.432046 2.020899 -1.154081 1.115145 0.000005 0.000004 0.000002 9.109383 -0.517899 2.259762 74.003378 -21.705173 16.431675 3.700041 0.000140 -0.000461 73.842391 -13.717538 10.341797 2.850038 0.000154 0.000197 73.431705 -10.707111 7.994806 2.774886 -0.000031 -0.000027 -0.000000 0.000000 0.000000 9.533467 0.000161 -0.000089 72.755025 -19.463826 14.394482 3.700038 0.000146 -0.000378 76.315835 -10.686025 8.403606 2.950037 0.000152 -0.000197 76.220711 -10.972813 8.619396 2.952873 -0.000031 0.000062 -0.000000 0.000001 -0.000000 9.104576 -0.042902 -1.865206 71.795445 -19.250577 13.997978 3.150043 0.000172 -0.000091 76.563204 -12.377747 9.784691 2.950025 0.000152 -0.000082 77.086157 -10.412869 8.305294 2.644325 0.000031 0.000058 0.000000 0.000000 0.000000 8.077833 -0.486778 -3.806374 61.858482 -20.344752 12.655977 3.600005 0.000098 0.014580 62.898188 -16.913630 10.727299 2.100019 0.000116 0.007553 65.827301 -13.234433 8.912454 2.125497 -0.000014 0.007518 -0.000001 -0.000001 -0.000000 -8.207786 -6.751667 -1.599560 -0.077001 -0.000003 0.000080 -0.000002 -44.370110 0.345938 0.153719 -0.000000 -0.000000 0.000000 -44.423679 -3.043532 -0.076700 0.000000 -0.000002 -0.000006 -8.728667 10.710559 -0.000009 -0.000000 -0.000000 -0.000001 -0.000679 9.278123 0.000000 -0.000000 -0.000000 8.207792 -6.751710 -1.599556 -0.074518 -0.000003 0.000081 -0.000002 -44.370014 0.346960 0.148822 0.000002 0.000000 -0.000001 -44.423664 -3.044403 -0.074314 0.000000 -0.000002 -0.000004 -8.728671 10.710558 0.000007 -0.000000 -0.000000 0.000000 -0.000680 9.278137 -0.000000 0.000000 -0.000001 
